<svg width="680" height="420" viewBox="0 0 680 420" xmlns="http://www.w3.org/2000/svg">
<defs>
  <marker id="arrow" viewBox="0 0 10 10" refX="8" refY="5" markerWidth="6" markerHeight="6" orient="auto-start-reverse">
    <path d="M2 1L8 5L2 9" fill="none" stroke="context-stroke" stroke-width="1.5" stroke-linecap="round" stroke-linejoin="round"/>
  </marker>
</defs>
<rect width="680" height="420" fill="white"/>
<text font-family="sans-serif" font-size="14" font-weight="500" x="340" y="30" text-anchor="middle" fill="#1a1a1a">Pit-or-Persist: evaluation pipeline</text>
<rect x="30" y="60" width="108" height="56" rx="8" fill="#E1F5EE" stroke="#0F6E56" stroke-width="0.5"/>
<text font-family="sans-serif" font-size="14" font-weight="500" x="84" y="84" text-anchor="middle" fill="#085041">FastF1</text>
<text font-family="sans-serif" font-size="12" x="84" y="102" text-anchor="middle" fill="#0F6E56">telemetry data</text>
<rect x="168" y="60" width="120" height="56" rx="8" fill="#EEEDFE" stroke="#534AB7" stroke-width="0.5"/>
<text font-family="sans-serif" font-size="14" font-weight="500" x="228" y="84" text-anchor="middle" fill="#26215C">MCP server</text>
<text font-family="sans-serif" font-size="12" x="228" y="102" text-anchor="middle" fill="#534AB7">6 tool functions</text>
<rect x="318" y="60" width="120" height="56" rx="8" fill="#FAECE7" stroke="#993C1D" stroke-width="0.5"/>
<text font-family="sans-serif" font-size="14" font-weight="500" x="378" y="84" text-anchor="middle" fill="#4A1B0C">Noise injector</text>
<text font-family="sans-serif" font-size="12" x="378" y="102" text-anchor="middle" fill="#993C1D">reliability r ∈ {1.0…0.4}</text>
<rect x="468" y="60" width="108" height="56" rx="8" fill="#FAEEDA" stroke="#854F0B" stroke-width="0.5"/>
<text font-family="sans-serif" font-size="14" font-weight="500" x="522" y="84" text-anchor="middle" fill="#412402">Prompt builder</text>
<text font-family="sans-serif" font-size="12" x="522" y="102" text-anchor="middle" fill="#854F0B">zero-shot / CoT</text>
<line x1="138" y1="88" x2="164" y2="88" stroke="#555" stroke-width="1.2" marker-end="url(#arrow)"/>
<line x1="288" y1="88" x2="314" y2="88" stroke="#555" stroke-width="1.2" marker-end="url(#arrow)"/>
<line x1="438" y1="88" x2="464" y2="88" stroke="#555" stroke-width="1.2" marker-end="url(#arrow)"/>
<line x1="522" y1="116" x2="522" y2="154" stroke="#555" stroke-width="1.2" marker-end="url(#arrow)"/>
<rect x="412" y="158" width="220" height="56" rx="8" fill="#E6F1FB" stroke="#185FA5" stroke-width="0.5"/>
<text font-family="sans-serif" font-size="14" font-weight="500" x="522" y="180" text-anchor="middle" fill="#042C53">LLM inference</text>
<text font-family="sans-serif" font-size="12" x="522" y="198" text-anchor="middle" fill="#185FA5">Qwen2.5-7B / Claude Haiku</text>
<line x1="412" y1="186" x2="312" y2="186" stroke="#555" stroke-width="1.2" marker-end="url(#arrow)"/>
<rect x="168" y="158" width="140" height="56" rx="8" fill="#F1EFE8" stroke="#5F5E5A" stroke-width="0.5"/>
<text font-family="sans-serif" font-size="14" font-weight="500" x="238" y="180" text-anchor="middle" fill="#2C2C2A">Evaluator</text>
<text font-family="sans-serif" font-size="12" x="238" y="198" text-anchor="middle" fill="#5F5E5A">vs ground truth</text>
<line x1="238" y1="214" x2="238" y2="254" stroke="#555" stroke-width="1.2" marker-end="url(#arrow)"/>
<rect x="118" y="258" width="240" height="56" rx="8" fill="#EAF3DE" stroke="#3B6D11" stroke-width="0.5"/>
<text font-family="sans-serif" font-size="14" font-weight="500" x="238" y="280" text-anchor="middle" fill="#173404">Metrics</text>
<text font-family="sans-serif" font-size="12" x="238" y="298" text-anchor="middle" fill="#3B6D11">accuracy · pit recall · faithfulness</text>
<rect x="140" y="335" width="330" height="68" rx="8" fill="none" stroke="#aaa" stroke-width="0.5" stroke-dasharray="4 3"/>
<text font-family="sans-serif" font-size="11" x="160" y="356" fill="#555">MCP tools: get_tyre_age · get_gap · get_deg_rate</text>
<text font-family="sans-serif" font-size="11" x="160" y="374" fill="#555">get_weather · get_compound · get_pit_window ★</text>
<text font-family="sans-serif" font-size="11" x="160" y="392" fill="#888" font-style="italic">★ strategic recommendation — also corrupted at reliability r</text>
<rect x="490" y="258" width="158" height="68" rx="8" fill="none" stroke="#aaa" stroke-width="0.5" stroke-dasharray="4 3"/>
<text font-family="sans-serif" font-size="11" x="568" y="278" text-anchor="middle" fill="#555">Noise regimes</text>
<text font-family="sans-serif" font-size="11" x="568" y="298" text-anchor="middle" fill="#555">Plausible: realistic values</text>
<text font-family="sans-serif" font-size="11" x="568" y="316" text-anchor="middle" fill="#555">Anomalous: out-of-range</text>
<line x1="378" y1="116" x2="378" y2="244" stroke="#aaa" stroke-width="0.5" stroke-dasharray="3 3"/>
<line x1="378" y1="244" x2="490" y2="270" stroke="#aaa" stroke-width="0.5" stroke-dasharray="3 3"/>
</svg>
